<svg xmlns="http://www.w3.org/2000/svg" width="20" height="20" viewBox="0 0 20 20" fill="none">
    <path d="M10.0011 5.95324L8.63675 4.55662L8.63618 4.55605C8.28829 4.20177 7.87329 3.92037 7.41542 3.72827C6.95755 3.53617 6.466 3.43723 5.96946 3.43723C5.47293 3.43723 4.98138 3.53617 4.52351 3.72827C4.06572 3.92033 3.65078 4.20167 3.30293 4.55586C2.58892 5.2808 2.18871 6.25748 2.18871 7.275C2.18871 8.29259 2.58898 9.26935 3.30308 9.9943L3.30337 9.99459L9.77837 16.5508L10.0007 16.776L10.2231 16.5508L16.6981 9.99459L16.6983 9.9943C17.4124 9.26935 17.8127 8.29259 17.8127 7.275C17.8127 6.25752 17.4125 5.28088 16.6986 4.55595C16.3509 4.20148 15.9359 3.91997 15.4781 3.72791C15.0203 3.53591 14.5288 3.43718 14.0324 3.4375C14.0322 3.4375 14.0319 3.4375 14.0317 3.4375L14.032 3.75M10.0011 5.95324L11.3581 4.56949L11.3588 4.5687L11.582 4.7875M10.0011 5.95324L11.3572 4.57036M10.0011 5.95324L11.3572 4.57036M14.032 3.75C13.5748 3.74935 13.1222 3.84089 12.7013 4.01915C12.2803 4.19741 11.8996 4.45874 11.582 4.7875M14.032 3.75C14.487 3.74962 14.9376 3.84008 15.3572 4.01609C15.7768 4.1921 16.1571 4.45011 16.4757 4.775L14.032 3.75ZM11.582 4.7875L11.3572 4.57036M11.582 4.7875L11.3572 4.57036M14.0317 2.8125L14.0319 2.8125C14.6118 2.81266 15.1858 2.92827 15.7206 3.15259C16.2554 3.37691 16.7401 3.70544 17.1466 4.11904C17.9755 4.96287 18.4399 6.09841 18.4399 7.28125C18.4399 8.46391 17.9756 9.59929 17.147 10.4431C17.1468 10.4432 17.1467 10.4434 17.1465 10.4435L10.0007 17.6802L2.8549 10.4435C2.85479 10.4434 2.85468 10.4433 2.85458 10.4432C2.02585 9.59939 1.56152 8.46396 1.56152 7.28125C1.56152 6.09846 2.02592 4.96295 2.85476 4.11913C3.26134 3.70575 3.74613 3.37744 4.28088 3.15333C4.81563 2.92923 5.38965 2.81381 5.96946 2.81381C6.54928 2.81381 7.12329 2.92923 7.65805 3.15333C8.1928 3.37744 8.67759 3.70575 9.08417 4.11913L9.085 4.11998L9.77875 4.81998L10.0007 5.04394L10.2227 4.81998L10.9164 4.11998L10.9176 4.11879C11.3236 3.70475 11.8082 3.37593 12.3429 3.15161C12.8777 2.9273 13.4518 2.81201 14.0317 2.8125Z" fill="#BDBDBD" stroke="#252B42" stroke-width="0.625"/>
</svg>