<svg width="16" height="16" viewBox="0 0 16 16" fill="none" xmlns="http://www.w3.org/2000/svg">
    <g clip-path="url(#clip0_2_166)">
        <path d="M15.8333 13.8337H1.5V0.833659C1.5 0.741992 1.425 0.666992 1.33333 0.666992H0.166667C0.075 0.666992 0 0.741992 0 0.833659V15.167C0 15.2587 0.075 15.3337 0.166667 15.3337H15.8333C15.925 15.3337 16 15.2587 16 15.167V14.0003C16 13.9087 15.925 13.8337 15.8333 13.8337ZM3 12.5003H14.1667C14.2583 12.5003 14.3333 12.4253 14.3333 12.3337V3.25033C14.3333 3.10033 14.1521 3.02741 14.0479 3.13158L9.66667 7.51283L7.05417 4.92949C7.02284 4.89848 6.98054 4.88108 6.93646 4.88108C6.89238 4.88108 6.85007 4.89848 6.81875 4.92949L2.88125 8.87949C2.86596 8.89481 2.85385 8.91301 2.84562 8.93303C2.8374 8.95306 2.83322 8.97451 2.83333 8.99616V12.3337C2.83333 12.4253 2.90833 12.5003 3 12.5003Z" fill="#40BB15"/>
    </g>
    <defs>
        <clipPath id="clip0_2_166">
            <rect width="16" height="14.6667" fill="white" transform="translate(0 0.666992)"/>
        </clipPath>
    </defs>
</svg>
